<?xml version="1.0" encoding="UTF-8" standalone="no"?>
<!DOCTYPE svg PUBLIC "-//W3C//DTD SVG 1.1//EN" "http://www.w3.org/Graphics/SVG/1.1/DTD/svg11.dtd">
<svg width="100%" height="100%" viewBox="0 0 154 130" version="1.1" xmlns="http://www.w3.org/2000/svg" xmlns:xlink="http://www.w3.org/1999/xlink" xml:space="preserve" xmlns:serif="http://www.serif.com/" style="fill-rule:evenodd;clip-rule:evenodd;stroke-linecap:round;stroke-linejoin:round;stroke-miterlimit:10;">
    <g transform="matrix(1,0,0,1,-6278.4425,-528.583333)">
        <g transform="matrix(4.166667,0,0,4.166667,4875,0)">
            <g transform="matrix(1,0,0,1,347.9095,127.86)">
                <path d="M0,0L24.75,0" style="fill:none;fill-rule:nonzero;stroke:rgb(51,51,51);stroke-width:2px;"/>
            </g>
        </g>
        <g transform="matrix(4.166667,0,0,4.166667,4875,0)">
            <g transform="matrix(1,0,0,1,347.9095,133.6948)">
                <path d="M0,0L24.75,0" style="fill:none;fill-rule:nonzero;stroke:rgb(51,51,51);stroke-width:2px;"/>
            </g>
        </g>
        <g transform="matrix(4.166667,0,0,4.166667,4875,0)">
            <g transform="matrix(1,0,0,1,347.9095,139.5295)">
                <path d="M0,0L24.75,0" style="fill:none;fill-rule:nonzero;stroke:rgb(51,51,51);stroke-width:2px;"/>
            </g>
        </g>
        <g transform="matrix(4.166667,0,0,4.166667,4875,0)">
            <g transform="matrix(1,0,0,1,347.9095,145.3643)">
                <path d="M0,0L24.75,0" style="fill:none;fill-rule:nonzero;stroke:rgb(51,51,51);stroke-width:2px;"/>
            </g>
        </g>
        <g transform="matrix(4.166667,0,0,4.166667,4875,0)">
            <g transform="matrix(1,0,0,1,347.9095,151.1991)">
                <path d="M0,0L24.75,0" style="fill:none;fill-rule:nonzero;stroke:rgb(51,51,51);stroke-width:2px;"/>
            </g>
        </g>
        <g transform="matrix(4.166667,0,0,4.166667,4875,0)">
            <g transform="matrix(1,0,0,1,347.9095,157.0338)">
                <path d="M0,0L13.25,0" style="fill:none;fill-rule:nonzero;stroke:rgb(51,51,51);stroke-width:2px;"/>
            </g>
        </g>
        <g transform="matrix(4.166667,0,0,4.166667,4875,0)">
            <g transform="matrix(0,1,1,0,353.6632,143.197)">
                <path d="M-12.837,-12.837L12.837,-12.837" style="fill:none;fill-rule:nonzero;stroke:rgb(51,51,51);stroke-width:2px;"/>
            </g>
        </g>
        <g transform="matrix(4.166667,0,0,4.166667,4875,0)">
            <g transform="matrix(1,0,0,1,337.8262,156.0338)">
                <path d="M0,-2.75L3.125,0L6,-2.75" style="fill:none;fill-rule:nonzero;stroke:rgb(51,51,51);stroke-width:2px;"/>
            </g>
        </g>
        <g transform="matrix(4.166667,0,0,4.166667,4875,0)">
            <g transform="matrix(1,0,0,1,343.8262,128.985)">
                <path d="M0,2.75L-3.125,0L-6,2.75" style="fill:none;fill-rule:nonzero;stroke:rgb(51,51,51);stroke-width:2px;"/>
            </g>
        </g>
    </g>
</svg>
